<svg width="55" height="54" viewBox="0 0 55 54" fill="none" xmlns="http://www.w3.org/2000/svg">
<rect x="0.5" width="54" height="54" rx="27" fill="#0A0A0A"/>
<path d="M44.1673 27.0006C44.1673 36.2054 36.7054 43.6673 27.5006 43.6673C18.2959 43.6673 10.834 36.2054 10.834 27.0006C10.834 17.7959 18.2959 10.334 27.5006 10.334C36.7054 10.334 44.1673 17.7959 44.1673 27.0006ZM16.6673 27.0006C16.6673 32.9837 21.5176 37.834 27.5006 37.834C33.4837 37.834 38.334 32.9837 38.334 27.0006C38.334 21.0176 33.4837 16.1673 27.5006 16.1673C21.5176 16.1673 16.6673 21.0176 16.6673 27.0006Z" fill="#474747"/>
<path d="M27.5006 10.3327C29.6893 10.3327 31.8566 10.7638 33.8787 11.6014C35.9008 12.4389 37.7381 13.6666 39.2858 15.2142C40.8334 16.7619 42.0611 18.5992 42.8986 20.6213C43.7362 22.6434 44.1673 24.8107 44.1673 26.9994L38.334 26.9994C38.334 25.5767 38.0538 24.168 37.5093 22.8536C36.9649 21.5393 36.1669 20.345 35.161 19.339C34.155 18.3331 32.9607 17.5351 31.6464 16.9907C30.332 16.4462 28.9233 16.166 27.5006 16.166L27.5006 10.3327Z" fill="white"/>
</svg>