<svg width="28" height="28" viewBox="0 0 28 28" fill="none" xmlns="http://www.w3.org/2000/svg">
<rect width="28" height="28" rx="14" fill="#FED138"/>
<g clip-path="url(#clip0_128_24)">
<path d="M14 21.3333C12.9981 21.3332 12.0193 21.0322 11.1906 20.4691C10.3619 19.9061 9.7214 19.1071 9.35223 18.1757C8.98306 17.2443 8.90222 16.2235 9.12019 15.2456C9.33816 14.2677 9.84489 13.3778 10.5747 12.6913C11.4693 11.8493 13.6667 10.3333 13.3333 7C17.3333 9.66667 19.3333 12.3333 15.3333 16.3333C16 16.3333 17 16.3333 18.6667 14.6867C18.8467 15.202 19 15.756 19 16.3333C19 17.6594 18.4732 18.9312 17.5355 19.8689C16.5979 20.8065 15.3261 21.3333 14 21.3333Z" fill="black"/>
</g>
<defs>
<clipPath id="clip0_128_24">
<rect width="16" height="16" fill="white" transform="translate(6 6)"/>
</clipPath>
</defs>
</svg>
